HIERARCHY
ROOT Hip
{
	OFFSET 0 0 0
	CHANNELS 6 Xposition Yposition Zposition Zrotation Yrotation Xrotation
	JOINT ShoulderCenter
	{
		OFFSET 0 0.4363 0
		CHANNELS 3 Zrotation Yrotation Xrotation
		JOINT Head
		{
			OFFSET 0 0.1849 0
			CHANNELS 3 Zrotation Yrotation Xrotation
			End Site
			{
				OFFSET 0.0 0.0891 0.0
			}
		}
		JOINT ShoulderLeft
		{
			OFFSET -0.14 0 0
			CHANNELS 3 Zrotation Yrotation Xrotation
			JOINT ElbowLeft
			{
				OFFSET -0.25 0 0
				CHANNELS 3 Zrotation Yrotation Xrotation
				JOINT WristLeft
				{
					OFFSET -0.23 0 0
					CHANNELS 3 Zrotation Yrotation Xrotation
					End Site
					{
						OFFSET -0.0832 0.0 0.0
					}
				}
			}
		}
		JOINT ShoulderRight
		{
			OFFSET 0.14 0 0
			CHANNELS 3 Zrotation Yrotation Xrotation
			JOINT ElbowRight
			{
				OFFSET 0.25 0 0
				CHANNELS 3 Zrotation Yrotation Xrotation
				JOINT WristRight
				{
					OFFSET 0.23 0 0
					CHANNELS 3 Zrotation Yrotation Xrotation
					End Site
					{
						OFFSET 0.0832 0.0 0.0
					}
				}
			}
		}
	}
	JOINT HipLeft
	{
		OFFSET -0.0952 0 0
		CHANNELS 3 Zrotation Yrotation Xrotation
		JOINT KneeLeft
		{
			OFFSET 0 -0.3732 0
			CHANNELS 3 Zrotation Yrotation Xrotation
			JOINT AnkleLeft
			{
				OFFSET 0 -0.346 0
				CHANNELS 3 Zrotation Yrotation Xrotation
				End Site
				{
					OFFSET 0.0 0.0 0.0891
				}
			}
		}
	}
	JOINT HipRight
	{
		OFFSET 0.0952 0 0
		CHANNELS 3 Zrotation Yrotation Xrotation
		JOINT KneeRight
		{
			OFFSET 0 -0.3732 0
			CHANNELS 3 Zrotation Yrotation Xrotation
			JOINT AnkleRight
			{
				OFFSET 0 -0.346 0
				CHANNELS 3 Zrotation Yrotation Xrotation
				End Site
				{
					OFFSET 0.0 0.0 0.0891
				}
			}
		}
	}
}
MOTION
Frames: 31
Frame Time: 0.033333
6.00412e-005 -3.91478e-005 -0.00242094 3.69287 5.16895 -9.30651 -1.37459 -1.1608 0.338562 -5.22612e-008 -2.15306e-007 3.01784e-007 76.9476 2.99183 -80.9207 14.1017 -3.71084 -2.48423 0 0 0 -74.6071 -2.02373 -73.3639 -15.5188 -6.05094 3.39691 0 0 0 -7.61892 -1.74294 -0.331342 10.2652 -0.147696 -15.1321 -4.10654e-007 5.3823e-009 1.90364e-007 50.4879 3.59725 -19.9762 -37.7326 65.3184 -70.9748 3.47498e-007 1.18882e-006 -9.65683e-007 
5.91432e-005 -4.12292e-005 -0.00242081 3.65189 4.56571 -9.169 -1.34424 -0.162412 0.0186105 -5.80911e-008 -1.90126e-007 2.92179e-007 78.4514 2.26833 -81.7459 13.7293 -5.43501 -3.54776 0 0 0 -74.9978 -1.00504 -73.0878 -16.9908 -7.26372 4.18703 3.20755e-007 -1.28448e-007 -7.70617e-007 -7.20751 -1.78828 -0.752753 10.2287 -0.0692234 -14.8386 0 0 0 51.445 2.3359 -19.3909 -46.2748 66.8837 -79.5635 0 0 0 
5.74752e-005 -4.28153e-005 -0.00242019 3.51657 4.2271 -9.08858 -1.36642 0.644495 -0.288532 0 0 0 80.2196 1.52596 -82.7132 13.7205 -7.23021 -4.66719 0 0 0 -75.085 -0.325492 -72.6544 -17.9066 -7.96248 4.66339 0 0 0 -6.61137 -1.7731 -0.996908 10.0683 0.0953294 -14.6272 -3.70425e-007 6.58619e-008 1.98018e-007 50.3411 7.65744 -19.1967 -12.2046 58.7798 -44.0091 7.07328e-007 1.79484e-007 -5.90712e-007 
5.56868e-005 -4.44732e-005 -0.00241939 3.40503 3.82551 -8.92986 -1.41455 1.93443 -0.757257 -8.03481e-008 -1.03789e-007 2.6377e-007 80.921 0.331615 -83.7652 14.1609 -8.1377 -5.19557 0 0 0 -75.3076 0.643298 -71.846 -18.9847 -8.83617 5.23653 0 0 0 -6.12727 -1.82416 -1.26665 10.1621 0.340662 -14.5653 0 0 0 50.829 9.15914 -18.8777 -20.0133 58.0998 -49.7033 4.59191e-007 4.54758e-007 -5.83016e-007 
5.47039e-005 -4.49233e-005 -0.00241902 3.35602 3.86302 -8.86314 -1.57813 2.2554 -0.916184 0 0 0 81.2939 0.0379495 -84.1817 14.3435 -7.79231 -4.98654 0 0 0 -75.2267 0.835992 -71.506 -19.3122 -9.21298 5.49313 2.49625e-007 -2.19655e-007 -7.16455e-007 -5.86467 -1.79636 -1.29025 10.0125 0.383929 -14.6493 0 0 0 50.9093 9.51379 -18.9348 -20.5278 57.9363 -49.947 0 0 0 
5.42854e-005 -4.50807e-005 -0.00241866 3.35262 3.88465 -8.81607 -1.68476 2.20346 -0.98084 0 0 0 81.3941 0.21512 -84.145 14.2452 -7.78549 -4.99879 0 0 0 -74.9659 1.05118 -71.5083 -20.0302 -8.94541 5.43783 0 0 0 -5.78053 -1.77859 -1.25658 9.92637 0.425243 -14.7674 0 0 0 50.9585 9.65586 -18.9521 -22.0258 58.2107 -51.229 0 0 0 
5.39844e-005 -4.50842e-005 -0.00241843 3.34304 4.02458 -8.77918 -1.77272 2.20335 -1.05053 4.23388e-009 -8.29617e-008 2.51216e-007 81.5521 0.0633659 -84.3123 14.7146 -7.40774 -4.82817 0 0 0 -74.8046 1.17297 -5.36936 1.426e-006 -22.3366 -1.3498e-006 0 0 0 -5.734 -1.75874 -1.20151 9.83129 0.403692 -14.8898 0 0 0 50.9025 9.80151 -19.042 -22.4784 57.9165 -51.5577 0 0 0 
5.33525e-005 -4.51216e-005 -0.00241799 3.40437 3.75528 -8.70189 -1.87285 2.43475 -1.15055 -5.55392e-010 -8.5204e-008 2.50373e-007 81.7252 -0.010971 -84.3042 15.6707 -6.98574 -4.71286 0 0 0 -74.6988 1.33759 -5.17224 -4.65895e-006 -22.931 7.77645e-007 0 0 0 -5.63865 -1.75728 -1.26959 9.78298 0.459716 -14.9242 0 0 0 51.259 9.63305 -18.7916 -24.3366 58.8604 -53.2658 4.00912e-007 6.46958e-007 -6.17739e-007 
5.24003e-005 -4.5255e-005 -0.00241727 3.31023 3.47224 -8.552 -1.71369 2.32506 -1.0758 2.18924e-010 -1.07568e-007 2.64647e-007 81.4874 0.132976 -83.9062 15.8439 -7.01137 -4.73115 0 0 0 -74.6866 1.78363 0.160049 -2.10151e-006 -29.8257 -5.53692e-006 0 0 0 -5.18456 -1.68007 -1.39326 9.36092 0.516963 -15.032 0 0 0 51.7025 15.3581 -19.5044 -19.1997 52.3891 -44.4636 0 0 0 
5.19834e-005 -4.5255e-005 -0.002417 3.25342 3.46969 -8.44562 -1.63079 2.07027 -0.934705 0 0 0 81.3515 0.325038 -83.6674 15.9318 -7.21036 -4.86138 0 0 0 -74.4796 1.73486 11.0619 -7.26758e-006 -30.5935 -4.90791e-007 0 0 0 -5.01038 -1.64574 -1.5939 9.15393 0.521092 -14.896 0 0 0 51.2665 17.2948 -20.3589 -15.0759 49.7815 -39.8048 0 0 0 
5.17225e-005 -4.5255e-005 -0.002417 3.2301 3.36657 -8.32407 -2.24226 1.91468 -0.401089 0 0 0 81.9084 0.704727 -83.51 15.9317 -7.45548 -4.96145 0 0 0 -74.4641 -1.38436 17.5679 1.12701e-005 -29.4418 -6.02481e-006 0 0 0 -4.81419 -1.59016 -1.89172 8.92036 0.738461 -14.6468 -3.57473e-007 6.72061e-008 1.91366e-007 50.6933 18.1237 -21.4102 -9.93119 51.3372 -35.9262 0 0 0 
5.16592e-005 -4.52105e-005 -0.002417 3.15891 3.33019 -8.24742 -2.40617 1.81979 -0.438623 1.27366e-009 -1.45838e-007 3.22514e-007 82.1034 0.722099 -83.3911 15.6287 -7.5974 -4.98718 0 0 0 -75.202 -3.5381 20.032 -3.47525e-006 -25.3472 -2.29965e-006 0 0 0 -4.75089 -1.58137 -2.12021 8.90623 0.831796 -14.3988 -3.80547e-007 -3.02001e-008 1.90707e-007 50.4378 18.7073 -21.7417 -9.48912 51.4406 -35.4301 0 0 0 
5.15094e-005 -4.51897e-005 -0.002417 2.93768 3.54235 -8.15725 -2.57953 1.11724 -0.489659 0 0 0 82.2476 0.642274 -82.8874 15.2356 -7.95267 -5.09818 -1.25573e-006 -4.73885e-007 6.721e-007 -77.7311 -6.97035 19.9034 -1.67622 -18.5307 1.02812 9.59167e-007 4.86521e-007 1.3538e-007 -4.51252 -1.51327 -2.2943 8.62003 0.895842 -14.2725 0 0 0 50.3089 17.8932 -21.9175 -11.8122 54.4586 -38.5737 0 0 0 
5.09317e-005 -4.51245e-005 -0.002417 2.33142 4.3689 -7.98592 -2.84314 -0.960281 -0.411936 0 0 0 82.6249 0.704114 -81.6684 14.8525 -8.5164 -5.29623 0 0 0 -80.4019 -8.47089 19.3232 0.181493 -12.0458 0.883769 0 0 0 -3.86342 -1.33427 -2.59998 7.854 1.07066 -14.2224 0 0 0 49.3229 18.7773 -23.2111 -13.8751 56.2809 -41.0316 8.45281e-007 9.21945e-007 -6.24681e-007 
5.01544e-005 -4.50992e-005 -0.00241693 1.66945 5.006 -7.67179 -2.74105 -2.32362 -0.686974 0 0 0 82.4765 0.0522358 -80.91 15.2132 -8.90854 -5.43 0 0 0 -82.5969 -9.24426 19.2858 -1.8151 -8.87799 1.32719 0 0 0 -2.9405 -1.13835 -2.86193 7.01331 1.32496 -14.4193 -3.60327e-008 -1.42331e-007 1.80291e-007 48.6307 22.0288 -23.9719 -13.0918 53.109 -38.312 0 0 0 
5.01544e-005 -4.4714e-005 -0.00241626 1.26022 5.41342 -7.44136 -2.93978 -3.25444 -1.00259 0 0 0 82.4678 -0.691248 -80.3169 15.0735 -9.01747 -5.29865 0 0 0 -83.476 -9.4135 19.1921 -2.70736 -7.65504 1.44708 4.59637e-007 5.75486e-007 -4.60793e-007 -2.51213 -1.05417 -2.96311 6.62919 1.46444 -14.651 0 0 0 48.5409 23.3911 -24.1659 -13.4489 52.2813 -37.7561 0 0 0 
5.00302e-005 -4.417e-005 -0.00241573 0.976358 5.44519 -7.12089 -2.12182 -3.49646 -1.56068 0 0 0 81.5459 -1.61691 -80.0426 15.2338 -8.37428 -4.79641 0 0 0 -85.1955 -9.41143 19.3269 -0.623439 -6.33401 1.0841 0 0 0 -2.40937 -1.09735 -3.19063 6.79008 1.57527 -14.8947 -3.95567e-008 -8.91212e-008 1.72039e-007 48.4975 24.1264 -24.5498 -14.1528 52.3986 -38.1943 0 0 0 
5.00302e-005 -4.35663e-005 -0.00241523 0.978182 5.55375 -6.97328 -2.12406 -3.81109 -1.78658 2.40883e-008 -1.36363e-008 3.19619e-007 81.4421 -1.81158 -79.8088 15.1549 -7.3541 -4.17761 0 0 0 -85.3072 -9.18802 19.1422 -0.268228 -6.36569 1.06916 0 0 0 -2.44498 -1.06115 -3.18714 6.6004 1.66875 -15.1451 0 0 0 48.0148 25.1836 -24.9789 -14.3899 51.8648 -37.924 9.2256e-007 1.1163e-006 -4.30185e-007 
5.00302e-005 -4.24031e-005 -0.00241433 0.975237 5.63922 -6.91135 -2.11264 -4.07338 -1.58898 0 0 0 81.3214 -1.72624 -79.6527 15.3851 -7.20571 -4.09711 0 0 0 -85.2557 -9.32151 18.9207 0.34822 -6.62586 1.04065 0 0 0 -2.44198 -1.0404 -3.13383 6.4662 1.6571 -15.2447 -1.05669e-007 -1.30638e-007 3.37918e-007 47.7398 27.4135 -25.79 -13.3739 49.5854 -35.711 0 0 0 
4.96816e-005 -4.16969e-005 -0.00241379 1.05228 5.71716 -6.89917 -1.83532 -4.22642 -1.46923 0 0 0 80.994 -1.61915 -79.5942 15.6193 -7.24453 -4.15022 0 0 0 -85.5009 -9.44329 18.7896 0.210427 -5.98502 0.946124 6.05922e-007 7.01811e-007 -4.78463e-007 -2.50949 -1.03875 -3.02829 6.41241 1.66474 -15.3919 0 0 0 46.8784 30.856 -27.357 -11.4004 45.3089 -31.8573 9.12485e-007 9.50179e-007 -3.64044e-007 
4.8145e-005 -3.98019e-005 -0.0024123 1.28275 5.39153 -7.02038 -1.33984 -4.25988 -1.27796 0 0 0 80.8985 -1.53032 -79.3813 16.2419 -6.69405 -3.93852 0 0 0 -85.2489 -9.34194 18.1623 1.0163 -5.53165 0.721184 0 0 0 -0.905074 -0.470224 -2.80461 3.28434 1.09397 -15.499 -1.396e-007 -6.45707e-008 1.70738e-007 36.7335 52.0893 -44.9244 -2.31572 12.1573 -7.1468 0 0 0 
4.40367e-005 -3.81434e-005 -0.00241014 1.45282 4.14248 -7.13508 -0.853044 -3.23297 -1.56661 -4.11617e-008 -8.37501e-009 3.30291e-007 81.0857 -1.9184 -79.2791 17.1328 -6.79177 -4.14788 -1.35301e-006 -3.2889e-007 7.86853e-007 -84.9149 -9.05882 17.7937 10.5078 -6.16798 -0.304595 1.50917e-006 -4.34349e-007 7.20853e-007 1.00731 -0.0364065 -2.40204 0.659014 0.88189 -16.2724 -2.03807e-007 -1.17306e-007 1.38706e-007 41.3667 51.4943 -40.292 -2.82144 13.0126 -7.3138 1.09504e-006 -4.81082e-007 3.34176e-007 
4.40367e-005 -3.61599e-005 -0.00240819 2.32771 3.32759 -7.36209 -1.07968 -2.56952 -1.42948 0 0 0 81.0095 -1.95748 -79.1276 18.2351 -7.8411 -5.01107 0 0 0 -84.5235 -8.90117 17.3505 13.2404 -4.69132 -0.525342 0 0 0 0.462804 -0.0552261 -1.88727 0.555347 0.672591 -16.482 0 0 0 46.0523 48.8321 -34.8824 -1.42069 14.6898 -7.53571 0 0 0 
4.40367e-005 -3.45482e-005 -0.00240619 2.89708 2.22114 -7.65222 -0.347541 -1.73478 -1.48247 0 0 0 80.6386 -2.1593 -78.9422 18.5353 -8.19154 -5.33243 0 0 0 -84.8089 -9.12454 16.9139 11.8602 -3.57763 -0.372755 0 0 0 0.948454 0.150802 -1.2619 -0.908558 -0.036698 -16.5908 0 0 0 52.1109 43.7242 -28.5024 -0.763602 13.6388 -6.8189 0 0 0 
4.26863e-005 -3.40792e-005 -0.00240619 2.88563 1.33143 -7.65439 0.312214 -0.928857 -1.67603 0 0 0 80.3829 -2.31723 -78.9059 18.4692 -8.26988 -5.38167 -1.23215e-006 -5.90989e-007 5.76246e-007 -85.1488 -9.23025 16.8358 11.4281 -3.04143 -0.30729 0 0 0 1.16398 0.133168 -1.27082 -0.826336 -0.1122 -16.3679 0 0 0 54.7666 41.3048 -25.6948 0.0275237 13.4012 -6.40493 0 0 0 
4.26863e-005 -3.38721e-005 -0.00240619 3.01214 1.20238 -7.67587 0.710318 -1.09637 -1.81417 0 0 0 80.1638 -2.45069 -78.6463 18.5506 -8.27945 -5.4088 0 0 0 -84.8217 -9.47834 16.4113 -0.956446 -6.1376 0.61778 0 0 0 1.07786 0.132735 -1.28524 -0.861284 -0.273015 -16.2338 -5.75369e-009 -1.00956e-008 1.74859e-007 54.0826 39.9778 -26.1403 3.00609 11.2015 -5.0043 0 0 0 
4.44219e-005 -3.27341e-005 -0.00240686 4.00113 -1.38587 -7.59416 2.18788 0.928055 -2.19096 0 0 0 79.1296 -2.2571 -78.1553 17.516 -9.08613 -5.83608 0 0 0 -84.5794 -8.85983 15.2862 -3.94168 -13.1529 1.52934 0 0 0 -0.571314 -0.231649 -3.08617 1.30174 -0.0888164 -12.6328 0 0 0 14.3659 59.9893 -38.248 -12.4287 6.03005 74.7095 0 0 0 
4.5131e-005 -3.26067e-005 -0.00240748 4.17185 -1.90105 -7.50829 2.28455 1.39188 -2.24877 0 0 0 79.5443 -2.27184 -78.2704 17.1764 -8.30847 -5.2924 -1.29745e-006 -7.29193e-007 4.64256e-007 -83.9577 -8.81926 15.0706 -5.51732 -13.3211 1.73975 0 0 0 -0.963417 -0.316776 -3.77673 1.88731 -0.00833469 -11.5136 0 0 0 18.4277 53.0329 -31.6641 -18.2903 7.4941 66.495 0 0 0 
5.18215e-005 -2.99396e-005 -0.00241042 5.11209 -1.52964 -7.1337 1.32314 0.93553 -2.60553 0 0 0 80.9526 -2.29824 -78.5157 16.2121 -7.66658 -4.74177 0 0 0 -81.1692 -6.10573 14.4224 -9.18348 -18.5415 2.95161 0 0 0 -3.29137 -0.63853 -4.82134 3.22764 -0.137924 -10.6368 -1.46378e-007 4.49938e-008 3.37456e-007 18.1024 24.9995 -19.4054 -26.1826 6.85214 39.3381 0 0 0 
5.43734e-005 -2.99396e-005 -0.00241093 5.34251 -1.7477 -7.05403 1.44439 0.629226 -2.67172 -3.40482e-008 3.10736e-009 2.72665e-007 80.6123 -1.32913 -77.898 15.3023 -7.48196 -4.61716 0 0 0 -81.3907 -5.48782 13.8543 -8.68432 -19.3145 2.93939 0 0 0 -4.03218 -0.768237 -5.11088 3.84949 -0.12457 -10.4048 0 0 0 16.6513 19.9304 -18.1217 -25.2475 5.75614 34.3071 0 0 0 
6.18106e-005 -2.99396e-005 -0.00241154 5.70687 -1.28539 -6.94151 1.819 0.393176 -2.78517 -4.09989e-007 4.55119e-008 2.68662e-007 79.8897 -1.29052 -78.0557 15.2095 -7.94758 -4.89574 0 0 0 -81.7533 -4.5495 13.9481 -7.40052 -18.1409 2.29629 0 0 0 -5.54472 -0.949104 -4.89886 4.6534 -0.195053 -10.6741 0 0 0 9.57957 7.29295 -13.7485 -16.8563 2.80973 22.2288 6.59634e-008 -3.09793e-009 -1.13729e-008 
